<svg width="24" height="11" viewBox="0 0 24 11" fill="none" xmlns="http://www.w3.org/2000/svg">
<path d="M14.8669 9.29381C14.8669 9.20026 15.0507 9.01316 15.1426 8.9196C15.2345 8.7325 15.1426 8.45185 14.8669 8.45185C13.2128 8.45185 11.5587 8.63895 9.90455 8.3583C9.44507 8.26475 8.98559 8.3583 8.52612 8.45185C6.32062 8.9196 4.11512 8.45185 2.00152 8.3583C1.35825 8.3583 0.80688 7.89054 0.531193 7.32923C0.347401 6.95503 0.255506 6.58083 0.0717143 6.20662C-0.203973 5.36466 0.347401 4.5227 1.17446 4.42915C2.00152 4.42915 2.92048 4.42915 3.74754 4.42915C5.30977 4.42915 6.87199 4.42915 8.43422 4.24205C9.81266 4.05494 11.283 3.96139 12.6614 3.86784C14.4993 3.86784 16.2454 3.49364 18.0833 3.30653C18.0833 3.11943 18.0833 2.93233 17.8995 2.83878C17.3481 2.55813 16.7048 2.37102 16.2454 1.99682C15.8778 1.80972 15.6021 1.52906 15.3264 1.24841C15.3264 1.24841 15.2345 0.967756 15.3264 0.780653C15.3264 0.687102 15.5102 0.5 15.6021 0.5C16.1535 0.5 16.7048 0.5 17.2562 0.687102C18.6346 1.24841 20.0131 1.80972 21.2996 2.55813C21.851 2.83878 22.4024 3.21298 22.9537 3.30653C23.2294 3.30653 23.5051 3.58719 23.6889 3.86784C24.1484 4.3356 24.0565 4.8969 23.6889 5.36466C22.9537 6.01952 22.1267 6.76793 21.3915 7.42279C21.2996 7.51634 21.1158 7.60989 21.0239 7.70344C19.3698 8.3583 17.9914 9.48091 16.521 10.3229C16.0616 10.6035 15.6021 10.51 15.2345 10.3229C14.775 10.0422 14.6831 9.85512 14.8669 9.38736V9.29381Z" fill="#010101"/>
</svg>
