<?xml version="1.0" encoding="utf-8"?>
<!-- Generator: Adobe Illustrator 27.5.0, SVG Export Plug-In . SVG Version: 6.00 Build 0)  -->
<svg version="1.1" id="Layer_1" xmlns="http://www.w3.org/2000/svg" xmlns:xlink="http://www.w3.org/1999/xlink" x="0px" y="0px"
	 viewBox="0 0 24 11" style="enable-background:new 0 0 24 11;" xml:space="preserve">
<style type="text/css">
	.st0{fill:#FFFFFF;}
</style>
<path class="st0" d="M14.9,9.3c0-0.1,0.2-0.3,0.3-0.4c0.1-0.2,0-0.5-0.3-0.5c-1.7,0-3.3,0.2-5-0.1C9.4,8.3,9,8.4,8.5,8.5
	C6.3,8.9,4.1,8.5,2,8.4c-0.6,0-1.2-0.5-1.5-1C0.3,7,0.3,6.6,0.1,6.2c-0.3-0.8,0.3-1.7,1.1-1.8c0.8,0,1.7,0,2.6,0
	c1.6,0,3.1,0,4.7-0.2c1.4-0.2,2.8-0.3,4.2-0.4c1.8,0,3.6-0.4,5.4-0.6c0-0.2,0-0.4-0.2-0.5c-0.6-0.3-1.2-0.5-1.7-0.8
	c-0.4-0.2-0.6-0.5-0.9-0.7c0,0-0.1-0.3,0-0.5c0-0.1,0.2-0.3,0.3-0.3c0.6,0,1.1,0,1.7,0.2c1.4,0.6,2.8,1.1,4,1.9
	c0.6,0.3,1.1,0.7,1.7,0.7c0.3,0,0.6,0.3,0.7,0.6c0.5,0.5,0.4,1,0,1.5C23,6,22.1,6.8,21.4,7.4c-0.1,0.1-0.3,0.2-0.4,0.3
	c-1.7,0.7-3,1.8-4.5,2.6c-0.5,0.3-0.9,0.2-1.3,0C14.8,10,14.7,9.9,14.9,9.3L14.9,9.3z"/>
</svg>
