<svg width="382" height="13" viewBox="0 0 382 13" fill="none" xmlns="http://www.w3.org/2000/svg">
<path d="M334.712 4.75255C336.135 3.3292 337.875 3.80364 339.615 3.80364C341.671 3.80364 343.885 4.27809 345.941 4.27809C349.42 4.27809 352.899 3.48733 356.379 4.11993C356.379 4.11993 356.695 3.96178 357.011 3.64548C356.537 3.32918 356.062 3.01287 355.746 2.85472C351.318 2.85472 346.89 2.85474 342.462 2.69659C338.191 2.69659 334.08 2.38029 329.809 2.38029C323.483 2.38029 317.157 2.38029 310.831 2.38029C303.873 2.38029 297.072 2.38029 290.114 2.38029C278.885 2.38029 267.656 2.38029 256.428 2.38029C249.785 2.38029 242.985 2.38029 236.342 2.38029C224.956 2.38029 213.727 2.38029 202.34 2.38029C195.698 2.38029 189.214 2.69658 182.571 3.01288C181.622 3.01288 180.832 3.17103 179.883 3.32918C179.883 3.48733 179.883 3.6455 179.883 3.9618C180.357 4.11995 180.673 4.59439 181.148 4.59439C183.678 4.91069 186.209 4.91069 188.581 4.11993C189.214 3.96178 189.846 3.64549 190.479 3.80364C194.432 4.75254 198.544 3.80363 202.498 4.43623C203.131 4.43623 203.922 4.43625 204.396 3.9618C205.345 3.3292 205.977 3.48735 207.085 3.9618C208.35 4.43625 209.931 3.9618 211.513 3.9618C213.094 3.9618 214.834 3.48735 216.415 3.9618C218.63 4.43625 220.686 4.43625 222.9 3.9618C224.797 3.6455 226.853 4.2781 228.751 3.9618C230.807 3.6455 232.547 3.80364 234.603 4.27809C235.71 4.5944 236.817 4.5944 238.082 3.9618C239.347 3.3292 241.087 3.9618 242.668 3.9618C242.668 3.9618 242.827 4.75253 242.985 5.22698C241.878 6.33404 240.612 6.33405 239.031 6.1759C237.608 6.01775 236.184 5.38515 234.919 6.33406C234.761 6.33406 234.445 6.33406 234.128 6.33406C231.44 5.38515 228.751 5.70145 226.063 6.1759C223.374 6.4922 220.686 6.1759 217.839 6.1759C217.681 6.1759 217.522 6.1759 217.206 6.1759C214.359 6.65035 211.355 6.65035 208.508 6.1759C208.033 6.1759 207.401 6.4922 206.926 6.65035C206.452 6.8085 205.661 7.28296 205.345 7.12481C203.289 5.85961 201.075 7.4411 199.019 6.49219C199.019 6.49219 198.703 6.49219 198.544 6.49219C193.958 7.7574 189.214 6.49221 184.627 7.12481C183.995 7.12481 183.362 6.80849 182.729 6.80849C182.255 6.80849 181.622 6.65034 181.306 6.80849C180.041 7.44109 178.776 7.91554 177.352 6.80849C177.036 6.65034 176.561 6.65034 176.245 6.80849C174.98 7.59924 173.398 6.80851 172.291 7.12481C170.71 7.44111 169.603 6.96664 168.179 6.80849C167.863 6.80849 167.231 6.49219 167.072 6.80849C165.333 8.0737 163.277 7.28295 161.379 7.7574C159.956 8.0737 158.532 8.0737 157.267 7.7574C156.476 7.7574 155.527 7.7574 154.737 7.7574C154.104 7.7574 153.471 8.07371 153.155 7.91556C151.099 6.80851 149.043 7.75741 146.987 7.91556C146.671 7.91556 146.197 8.23185 145.88 8.0737C143.982 6.8085 142.085 8.0737 140.187 8.0737C138.447 8.0737 136.549 7.75741 134.81 7.91556C129.907 7.91556 124.846 8.54815 119.944 8.39C115.515 8.39 111.087 8.54815 106.659 8.86445C105.236 8.86445 103.812 8.39 102.389 8.39C94.0068 8.54815 85.6249 7.75741 77.2429 9.02261C76.9266 9.02261 76.6103 9.02261 76.4521 9.02261C73.131 8.07371 69.6516 9.02261 66.3305 9.02261C64.5908 9.02261 62.693 9.02261 60.9533 9.02261C60.1626 9.02261 59.3718 9.02261 58.4229 9.33891C57.6322 9.33891 56.6833 9.65521 55.8925 9.65521C51.148 9.97151 46.2453 10.2878 41.5008 10.7623C35.1748 11.2367 28.6906 11.8693 22.3646 12.1856C18.7271 12.3438 15.0897 12.1856 11.294 12.1856C9.87069 12.1856 8.44733 12.3438 7.18213 12.6601C5.44247 12.9764 1.48871 10.7623 0.697952 8.86445C-0.0928014 7.1248 0.697952 5.06884 2.59576 3.80364C3.07021 3.48734 3.86097 3.17103 4.33542 3.32918C6.70768 3.48733 9.23809 3.80363 11.6103 4.11993C18.7271 4.91069 25.8439 4.11993 32.8025 4.11993C41.1845 3.80363 49.5665 2.85474 57.9485 2.69659C70.9168 2.38029 83.8852 2.38028 96.8536 2.22213C101.756 2.22213 106.501 2.22213 111.403 2.22213C120.418 2.22213 129.591 2.38028 138.605 2.22213C153.946 2.06398 169.287 1.74768 184.627 1.43138C191.428 1.43138 198.386 1.11508 205.187 1.11508C212.145 1.11508 219.104 1.11508 226.063 1.11508C230.649 1.11508 235.077 1.11508 239.664 1.11508C242.51 1.11508 245.515 1.43138 248.362 1.43138C251.525 1.43138 254.688 1.11508 258.009 1.11508C267.34 1.11508 276.829 1.27322 286.16 1.27322C295.491 1.27322 304.664 1.27322 313.994 1.27322C322.06 1.27322 330.284 1.27323 338.35 1.43138C348.946 1.43138 359.542 1.43138 370.138 1.43138C372.985 1.43138 375.989 0.956926 378.836 0.640625C380.26 0.640625 381.05 1.43139 381.999 2.38029C381.367 3.17104 380.892 3.9618 380.26 4.75255C380.892 5.227 381.367 5.54329 381.999 6.01774C381.683 7.28294 380.734 7.91556 379.627 7.91556C376.622 7.91556 373.617 8.23185 370.612 8.0737C365.551 8.0737 360.333 7.75739 355.272 7.59924C352.583 7.59924 349.895 7.28296 347.206 7.12481C346.257 7.12481 345.15 7.12481 344.201 7.12481C340.88 7.44111 337.717 7.12481 334.712 5.5433M74.5543 4.75255C74.5543 4.75255 74.5543 5.06883 74.5543 5.22698C75.9777 5.38513 77.2429 5.70144 78.6662 5.70144C79.9314 5.70144 81.3548 5.227 82.62 5.5433C88.1553 6.49221 93.5324 5.8596 99.0677 6.1759C99.5421 6.1759 100.175 6.1759 100.649 5.8596C101.914 5.38515 102.863 5.06885 104.128 5.8596C104.445 6.1759 105.236 5.85959 105.71 6.01774C110.771 6.49219 115.832 5.70144 121.051 6.01774C126.586 6.33404 131.963 6.01774 137.498 6.01774C140.187 6.01774 142.717 5.54329 145.406 5.70144C148.411 5.85959 151.257 5.70144 154.262 5.70144C156.318 5.70144 158.532 5.22698 160.588 5.22698C163.909 5.22698 167.231 5.22698 170.71 5.22698C173.082 5.22698 175.296 5.227 177.669 5.06885C178.143 5.06885 178.617 4.59439 179.566 4.11993C178.459 3.80363 177.827 3.48734 177.194 3.48734C173.873 3.48734 170.552 3.48734 167.231 3.48734C160.588 3.48734 153.788 3.80364 147.145 3.80364C138.289 3.80364 129.433 3.80364 120.576 3.80364C116.464 3.80364 112.51 3.80365 108.399 3.9618C106.659 3.9618 104.761 3.9618 103.021 3.9618C100.017 3.9618 97.0117 4.11993 94.0068 4.11993C88.4716 4.11993 82.9363 3.80364 77.401 3.80364C76.4521 3.80364 75.6614 4.11994 74.7125 4.27809M358.435 4.11993C361.914 4.91069 374.566 4.59439 376.306 3.80364C372.036 3.01288 360.174 3.32918 358.435 4.11993ZM73.131 4.59439C67.7538 3.32919 62.5349 3.96178 59.3718 5.70144C60.9533 5.06884 62.693 6.4922 64.1164 5.06885C64.2745 4.9107 64.9071 4.75254 65.2234 4.91069C67.2794 5.70144 69.4935 4.9107 71.7076 5.5433C72.182 5.5433 72.6565 5.06885 73.131 4.75255" fill="#010101"/>
<path d="M306.403 4.11867C306.403 4.11867 306.878 3.48607 307.352 3.48607C310.041 3.48607 312.888 3.80237 315.576 3.80237C316.525 3.80237 317.632 3.80238 318.581 3.48607C319.846 3.16977 320.479 3.80236 320.795 5.22572C320.162 5.38387 319.53 5.70017 319.055 5.70017C316.367 5.70017 313.678 5.70017 310.832 5.70017C310.515 5.70017 310.199 5.70017 310.041 5.70017C306.245 5.70017 302.45 6.01647 298.496 6.01647C296.282 6.01647 294.068 5.70017 291.854 5.70017C290.114 5.70017 288.374 5.70017 286.635 6.01647C286.318 6.01647 286.002 6.33278 285.844 6.17463C285.211 5.85833 284.104 5.54203 283.946 5.06758C283.63 3.96053 284.737 4.27683 285.528 3.96053C286.951 3.64423 288.216 3.32793 289.639 3.96053C290.43 4.27683 291.695 3.48606 292.644 3.64421C295.807 4.11866 298.812 3.64422 301.817 3.48607C303.082 3.48607 304.506 3.96053 306.245 4.27683" fill="#010101"/>
<path d="M242.985 4.75145C243.302 4.43515 243.776 3.64438 243.934 3.64438C245.674 4.43513 247.414 3.64439 248.995 3.80254C250.102 3.80254 251.209 4.11884 252.474 3.80254C253.74 3.32809 255.479 3.48624 256.903 3.48624C257.219 3.48624 257.377 4.11884 257.693 4.59329C256.586 6.33295 254.847 6.01664 253.265 6.01664C252.316 6.01664 251.526 6.49111 250.735 6.33296C248.204 6.17481 245.674 5.70035 243.302 5.38405C243.302 5.38405 243.144 5.06774 242.985 4.90959" fill="#010101"/>
<path d="M334.711 4.75259C334.711 5.85964 334.237 6.33409 333.288 6.33409C329.967 6.17594 326.645 5.85964 323.324 5.54334C322.85 5.54334 322.375 5.22703 322.217 4.91072C322.059 4.75257 322.059 4.11999 322.217 3.96183C322.217 3.64553 323.008 3.32923 323.008 3.48738C324.115 4.27813 325.38 3.48738 326.487 3.48738C328.227 3.64553 329.967 3.80368 331.706 3.96183C332.655 3.96183 333.604 3.96183 334.869 3.96183C334.869 3.96183 334.869 4.43629 334.869 4.75259" fill="#010101"/>
<path d="M270.186 4.43505C268.605 6.49101 266.391 6.33288 264.335 5.54213C263.386 5.22583 262.595 4.90952 261.488 5.54213C260.697 5.85843 259.432 5.54213 258.483 5.54213C258.167 5.54213 258.009 4.75135 257.85 4.43505C258.799 3.9606 259.748 2.53725 260.855 4.11876C261.646 3.48615 262.911 3.9606 263.544 3.6443C265.758 2.53725 267.972 4.11875 270.028 3.6443C270.028 3.9606 270.028 4.27692 270.186 4.75137V4.43505Z" fill="#010101"/>
<path d="M270.029 4.59406C271.295 3.487 272.56 3.17069 274.458 3.64514C276.355 4.11959 278.569 4.11961 280.625 3.96146C281.891 3.96146 282.523 4.27776 283.314 5.54297C280.942 5.54297 278.886 5.54295 276.83 5.70111C275.406 5.70111 273.983 5.70111 272.56 5.70111C271.294 5.85926 270.504 5.7011 270.029 4.4359" fill="#010101"/>
</svg>
