<svg width="187" height="3" viewBox="0 0 187 3" fill="none" xmlns="http://www.w3.org/2000/svg">
<path d="M163.828 1.02373C164.525 0.669362 165.378 0.787482 166.23 0.787482C167.238 0.787482 168.323 0.905606 169.33 0.905606C171.035 0.905606 172.74 0.708733 174.445 0.866229C174.445 0.866229 174.6 0.826854 174.755 0.748106C174.523 0.669357 174.29 0.590609 174.135 0.551235C171.965 0.551235 169.795 0.551239 167.625 0.511865C165.533 0.511865 163.518 0.433118 161.425 0.433118C158.325 0.433118 155.225 0.433118 152.125 0.433118C148.715 0.433118 145.383 0.433118 141.973 0.433118C136.47 0.433118 130.968 0.433118 125.466 0.433118C122.211 0.433118 118.878 0.433118 115.623 0.433118C110.043 0.433118 104.541 0.433118 98.9608 0.433118C95.7058 0.433118 92.5283 0.511863 89.2734 0.590612C88.8084 0.590612 88.4209 0.629985 87.9559 0.669359C87.9559 0.708733 87.9559 0.74811 87.9559 0.826859C88.1884 0.866233 88.3434 0.984353 88.5759 0.984353C89.8159 1.0631 91.0559 1.0631 92.2183 0.866229C92.5283 0.826855 92.8383 0.748108 93.1483 0.787482C95.0858 1.02373 97.1008 0.78748 99.0383 0.944976C99.3483 0.944976 99.7358 0.944981 99.9683 0.826859C100.433 0.669362 100.743 0.708736 101.286 0.826859C101.906 0.944981 102.681 0.826859 103.456 0.826859C104.231 0.826859 105.083 0.708736 105.858 0.826859C106.943 0.944981 107.951 0.944981 109.036 0.826859C109.966 0.74811 110.973 0.905607 111.903 0.826859C112.911 0.74811 113.763 0.787483 114.771 0.905606C115.313 0.984354 115.856 0.984355 116.476 0.826859C117.096 0.669362 117.948 0.826859 118.723 0.826859C118.723 0.826859 118.801 1.02372 118.878 1.14185C118.336 1.41747 117.716 1.41747 116.941 1.37809C116.243 1.33872 115.546 1.18123 114.926 1.41747C114.848 1.41747 114.693 1.41747 114.538 1.41747C113.221 1.18123 111.903 1.25997 110.586 1.37809C109.268 1.45684 107.951 1.37809 106.556 1.37809C106.478 1.37809 106.401 1.37809 106.246 1.37809C104.851 1.49622 103.378 1.49622 101.983 1.37809C101.751 1.37809 101.441 1.45684 101.208 1.49622C100.976 1.53559 100.588 1.65371 100.433 1.61434C99.4258 1.29935 98.3408 1.69309 97.3333 1.45684C97.3333 1.45684 97.1783 1.45684 97.1008 1.45684C94.8533 1.77183 92.5283 1.45684 90.2809 1.61434C89.9709 1.61434 89.6609 1.53559 89.3509 1.53559C89.1184 1.53559 88.8084 1.49621 88.6534 1.53559C88.0334 1.69308 87.4134 1.81121 86.7159 1.53559C86.5609 1.49621 86.3284 1.49621 86.1734 1.53559C85.5534 1.73246 84.7784 1.53559 84.2359 1.61434C83.4609 1.69309 82.9184 1.57496 82.2209 1.53559C82.0659 1.53559 81.7559 1.45684 81.6784 1.53559C80.8259 1.85058 79.8185 1.65371 78.8885 1.77183C78.191 1.85058 77.4935 1.85058 76.8735 1.77183C76.486 1.77183 76.021 1.77183 75.6335 1.77183C75.3235 1.77183 75.0135 1.85059 74.8585 1.81121C73.851 1.53559 72.8435 1.77184 71.836 1.81121C71.681 1.81121 71.4485 1.88996 71.2935 1.85058C70.3635 1.53559 69.4335 1.85058 68.5036 1.85058C67.6511 1.85058 66.7211 1.77184 65.8686 1.81121C63.4661 1.81121 60.9861 1.9687 58.5836 1.92933C56.4137 1.92933 54.2437 1.9687 52.0737 2.04745C51.3762 2.04745 50.6787 1.92933 49.9812 1.92933C45.8738 1.9687 41.7663 1.77184 37.6588 2.08683C37.5038 2.08683 37.3488 2.08683 37.2713 2.08683C35.6438 1.85058 33.9389 2.08683 32.3114 2.08683C31.4589 2.08683 30.5289 2.08683 29.6764 2.08683C29.2889 2.08683 28.9014 2.08683 28.4364 2.16558C28.0489 2.16558 27.5839 2.24432 27.1964 2.24432C24.8714 2.32307 22.469 2.40182 20.144 2.51994C17.044 2.63806 13.8665 2.79556 10.7666 2.87431C8.98409 2.91369 7.2016 2.87431 5.34162 2.87431C4.64412 2.87431 3.94663 2.91369 3.32664 2.99243C2.47414 3.07118 0.536662 2.51994 0.149165 2.04745C-0.238331 1.61434 0.149165 1.10248 1.07916 0.787482C1.31165 0.708734 1.69915 0.629985 1.93165 0.669359C3.09414 0.708733 4.33413 0.787481 5.49662 0.866229C8.98409 1.0631 12.4716 0.866229 15.8815 0.866229C19.989 0.787481 24.0965 0.551239 28.2039 0.511865C34.5589 0.433116 40.9138 0.433115 47.2687 0.393741C49.6712 0.393741 51.9962 0.393741 54.3987 0.393741C58.8161 0.393741 63.3111 0.433115 67.7286 0.393741C75.246 0.354367 82.7634 0.275619 90.2809 0.196871C93.6133 0.196871 97.0233 0.118124 100.356 0.118124C103.766 0.118124 107.176 0.118124 110.586 0.118124C112.833 0.118124 115.003 0.118124 117.251 0.118124C118.646 0.118124 120.118 0.196871 121.513 0.196871C123.063 0.196871 124.613 0.118124 126.241 0.118124C130.813 0.118124 135.463 0.157494 140.035 0.157494C144.608 0.157494 149.103 0.157494 153.675 0.157494C157.628 0.157494 161.658 0.157496 165.61 0.196871C170.803 0.196871 175.995 0.196871 181.188 0.196871C182.583 0.196871 184.055 0.0787482 185.45 0C186.148 0 186.535 0.196873 187 0.433118C186.69 0.629988 186.457 0.826859 186.148 1.02373C186.457 1.14185 186.69 1.22059 187 1.33872C186.845 1.65371 186.38 1.81121 185.838 1.81121C184.365 1.81121 182.893 1.88996 181.42 1.85058C178.94 1.85058 176.383 1.77183 173.903 1.73246C172.585 1.73246 171.268 1.65371 169.95 1.61434C169.485 1.61434 168.943 1.61434 168.478 1.61434C166.85 1.69309 165.3 1.61434 163.828 1.2206M36.3413 1.02373C36.3413 1.02373 36.3413 1.10247 36.3413 1.14185C37.0388 1.18122 37.6588 1.25997 38.3563 1.25997C38.9763 1.25997 39.6738 1.14185 40.2938 1.2206C43.0063 1.45684 45.6413 1.29935 48.3537 1.37809C48.5862 1.37809 48.8962 1.37809 49.1287 1.29935C49.7487 1.18122 50.2137 1.10248 50.8337 1.29935C50.9887 1.37809 51.3762 1.29934 51.6087 1.33872C54.0887 1.45684 56.5687 1.25997 59.1261 1.33872C61.8386 1.41747 64.4736 1.33872 67.1861 1.33872C68.5036 1.33872 69.7435 1.2206 71.061 1.25997C72.5335 1.29934 73.9285 1.25997 75.401 1.25997C76.4085 1.25997 77.4935 1.14185 78.501 1.14185C80.1284 1.14185 81.7559 1.14185 83.4609 1.14185C84.6234 1.14185 85.7084 1.14185 86.8709 1.10248C87.1034 1.10248 87.3359 0.984351 87.8009 0.866229C87.2584 0.787481 86.9484 0.708735 86.6384 0.708735C85.0109 0.708735 83.3834 0.708735 81.7559 0.708735C78.501 0.708735 75.1685 0.787482 71.9135 0.787482C67.5736 0.787482 63.2336 0.787482 58.8936 0.787482C56.8787 0.787482 54.9412 0.787485 52.9262 0.826859C52.0737 0.826859 51.1437 0.826859 50.2912 0.826859C48.8187 0.826859 47.3462 0.866229 45.8738 0.866229C43.1613 0.866229 40.4488 0.787482 37.7363 0.787482C37.2713 0.787482 36.8838 0.866232 36.4188 0.905606M175.453 0.866229C177.158 1.0631 183.358 0.984353 184.21 0.787482C182.118 0.590612 176.305 0.669359 175.453 0.866229ZM35.6438 0.984353C33.0089 0.66936 30.4514 0.826855 28.9014 1.25997C29.6764 1.10247 30.5289 1.45684 31.2264 1.10248C31.3039 1.0631 31.6139 1.02373 31.7689 1.0631C32.7764 1.25997 33.8614 1.0631 34.9464 1.2206C35.1789 1.2206 35.4114 1.10248 35.6438 1.02373" fill="#010101"/>
<path d="M149.955 0.865844C149.955 0.865844 150.187 0.70835 150.42 0.70835C151.737 0.70835 153.132 0.787097 154.45 0.787097C154.915 0.787097 155.457 0.787098 155.922 0.70835C156.542 0.629602 156.852 0.787095 157.007 1.14146C156.697 1.18084 156.387 1.25959 156.155 1.25959C154.837 1.25959 153.52 1.25959 152.125 1.25959C151.97 1.25959 151.815 1.25959 151.737 1.25959C149.877 1.25959 148.017 1.33833 146.08 1.33833C144.995 1.33833 143.91 1.25959 142.825 1.25959C141.972 1.25959 141.12 1.25958 140.267 1.33833C140.112 1.33833 139.957 1.41708 139.88 1.37771C139.57 1.29896 139.027 1.22021 138.95 1.10209C138.795 0.826472 139.337 0.905222 139.725 0.826474C140.422 0.747725 141.042 0.668977 141.74 0.826474C142.127 0.905222 142.747 0.708346 143.212 0.747721C144.762 0.865843 146.235 0.747724 147.707 0.70835C148.327 0.70835 149.025 0.826472 149.877 0.905221" fill="#010101"/>
<path d="M118.879 1.02344C119.034 0.944695 119.266 0.747819 119.344 0.747819C120.196 0.94469 121.049 0.747822 121.824 0.787196C122.366 0.787196 122.909 0.865944 123.529 0.787196C124.149 0.669073 125.001 0.708449 125.699 0.708449C125.854 0.708449 125.931 0.865944 126.086 0.984066C125.544 1.41718 124.691 1.33843 123.916 1.33843C123.451 1.33843 123.064 1.45656 122.676 1.41718C121.436 1.37781 120.196 1.25969 119.034 1.18094C119.034 1.18094 118.956 1.10219 118.879 1.06281" fill="#010101"/>
<path d="M163.827 1.02371C163.827 1.29933 163.594 1.41745 163.129 1.41745C161.502 1.37808 159.874 1.29933 158.247 1.22058C158.014 1.22058 157.782 1.14183 157.704 1.06308C157.627 1.02371 157.627 0.866213 157.704 0.826839C157.704 0.74809 158.092 0.669341 158.092 0.708715C158.634 0.905586 159.254 0.708715 159.797 0.708715C160.649 0.748089 161.502 0.787464 162.354 0.826839C162.819 0.826839 163.284 0.826839 163.904 0.826839C163.904 0.826839 163.904 0.944961 163.904 1.02371" fill="#010101"/>
<path d="M132.208 0.944688C131.433 1.45655 130.348 1.41718 129.341 1.22031C128.876 1.14156 128.488 1.06282 127.946 1.22031C127.558 1.29906 126.938 1.22031 126.473 1.22031C126.318 1.22031 126.241 1.02344 126.163 0.944688C126.628 0.826566 127.093 0.4722 127.636 0.865941C128.023 0.708445 128.643 0.826566 128.953 0.747817C130.038 0.472199 131.123 0.86594 132.131 0.747817C132.131 0.826566 132.131 0.905319 132.208 1.02344V0.944688Z" fill="#010101"/>
<path d="M132.132 0.984226C132.752 0.708607 133.372 0.629856 134.302 0.747979C135.232 0.866101 136.317 0.866106 137.324 0.826732C137.944 0.826732 138.254 0.90548 138.642 1.22047C137.479 1.22047 136.472 1.22047 135.464 1.25984C134.767 1.25984 134.069 1.25984 133.372 1.25984C132.752 1.29922 132.364 1.25984 132.132 0.944849" fill="#010101"/>
</svg>
