<svg width="356" height="17" viewBox="0 0 356 17" fill="none" xmlns="http://www.w3.org/2000/svg">
<path d="M226.108 9.86631C227.374 9.07556 228.164 8.44295 228.955 7.9685C228.955 7.9685 228.955 7.81035 228.955 7.6522C228.006 7.9685 226.741 7.9685 226.267 8.75926C225.318 10.1826 223.894 9.70816 222.629 9.86631C219.624 10.1826 216.619 10.0245 213.773 10.0245C211.084 10.0245 208.396 10.0245 205.707 10.0245C204.284 10.0245 203.018 10.3408 201.595 10.3408C197.325 10.4989 193.213 10.0245 188.943 10.1826C186.729 10.1826 184.198 10.1826 181.826 9.70816C181.194 9.70816 180.403 9.70816 179.612 9.70816C175.975 9.86631 172.337 9.70816 168.7 9.70816C165.537 9.70816 162.532 9.86631 159.369 10.1826C158.104 10.1826 156.838 10.1826 155.415 10.1826C153.359 10.1826 151.461 9.70816 149.405 9.70816C148.298 9.70816 147.191 10.1826 146.084 10.1826C142.13 10.1826 138.177 10.0245 134.381 10.0245C132.483 10.0245 130.585 10.6571 128.688 10.1826C125.999 9.55001 123.152 11.4478 120.464 9.55001C120.306 9.55001 119.673 9.55001 119.357 9.55001C117.775 10.3408 116.352 10.3408 114.77 9.55001C114.612 9.55001 114.138 9.55001 113.98 9.55001C107.654 11.1315 101.169 10.9734 94.8434 11.1315C90.7315 11.1315 86.6195 11.9223 82.5076 11.9223C80.768 11.9223 79.0283 12.8712 77.2886 11.9223C77.1305 11.9223 76.656 11.9223 76.4979 11.9223C73.3349 13.1875 70.0137 12.5549 66.8507 12.8712C63.2132 13.1875 59.5758 13.6619 55.9383 13.9782C50.7193 14.4527 45.5004 14.769 40.1232 15.0853C35.3787 15.4016 30.6342 15.0853 26.0478 16.0342C23.8337 16.5086 21.3033 16.0342 18.9311 16.0342C14.1865 15.7179 9.44202 15.4016 4.85565 15.0853C3.27414 15.0853 1.37634 13.5038 0.901883 11.9223C0.901883 11.606 0.901883 11.2897 0.901883 11.1315C-0.205171 10.1826 -0.205172 8.91741 0.427431 7.81035C1.21818 6.387 2.64154 7.0196 3.74859 6.86145C11.498 6.07069 19.2474 7.17775 26.9967 6.86145C26.9967 6.86145 27.1549 6.86145 27.313 6.86145C31.8994 5.59624 36.6439 6.54515 41.3885 6.0707C46.9237 5.59624 52.459 5.27994 57.9943 4.80549C63.0551 4.33104 68.1159 3.85659 73.1767 3.54028C77.1305 3.22398 81.2424 3.38213 85.1962 3.22398C85.6706 3.22398 86.1451 3.22398 86.6195 3.22398C91.9967 2.11693 97.5319 2.43323 103.067 2.27508C104.649 2.27508 106.23 1.95878 107.654 1.80063C109.077 1.80063 110.342 1.95878 111.765 1.95878C112.398 1.95878 113.031 1.95878 113.663 1.64248C114.454 1.64248 115.087 1.16803 115.877 1.16803C122.994 1.16803 129.953 0.851724 137.07 0.851724C143.87 0.851724 150.671 0.851724 157.471 0.851724C161.108 0.851724 164.746 0.851724 168.542 0.851724C171.072 0.851724 173.602 0.535423 175.975 0.377272C177.24 0.377272 178.347 0.377272 179.612 0.377272C180.561 0.377272 181.668 0.693574 182.617 0.377272C185.78 -0.0971794 188.943 -0.25533 192.106 0.693574C192.422 0.693574 192.897 0.693574 193.213 0.693574C197.167 -0.571631 201.279 0.851724 205.233 0.219122C206.023 0.219122 206.972 0.535423 207.763 0.535423C209.028 0.535423 210.451 0.693574 211.717 0.535423C214.247 0.219122 216.778 -0.413481 219.466 0.535423C221.048 1.16803 222.945 0.535423 224.685 0.535423C226.425 0.535423 228.164 0.0609713 229.904 0.219122C233.858 0.535423 237.97 -0.413481 241.923 0.851724C243.347 1.32618 244.612 0.851724 246.035 0.535423C248.882 0.219122 251.729 0.535423 254.734 0.535423C256.632 0.535423 258.529 0.851724 260.427 0.851724C263.116 0.851724 265.804 0.219122 268.335 0.851724C271.972 1.95878 275.293 0.851724 278.773 0.851724C283.517 1.16803 288.262 1.32618 293.164 1.64248C298.225 1.95878 303.128 2.11693 308.189 2.43323C313.882 2.74953 319.417 3.22398 325.111 3.38213C333.176 3.69844 341.4 4.01474 349.466 4.33104C350.573 4.33104 351.838 4.33104 352.787 4.80549C354.527 5.59624 355.792 7.0196 355.634 9.39186C355.001 9.55001 354.369 9.86631 353.578 10.1826C353.894 11.606 355.634 12.8712 353.578 14.6108C351.364 14.2945 348.833 14.1364 346.303 13.0293C345.67 12.713 344.88 13.3456 344.089 13.1875C341.242 13.1875 338.554 13.3456 335.707 12.8712C332.86 12.3967 329.855 12.713 327.167 12.2386C324.794 11.9223 322.422 12.2386 320.05 11.9223C318.152 11.9223 316.412 11.7641 315.147 10.0245C313.724 11.7641 311.984 11.7641 310.086 11.2897C309.454 11.1315 308.821 11.2897 308.189 11.2897C305.184 11.2897 302.179 10.9734 299.174 10.9734C293.797 10.9734 288.42 10.9734 283.043 10.6571C281.145 10.6571 279.247 10.0245 277.349 9.70816C276.4 9.70816 275.61 9.86631 274.661 9.86631C270.074 9.86631 265.33 9.86631 260.743 9.55001C258.846 9.55001 256.79 9.23371 254.892 9.07556C254.734 9.07556 254.417 9.07556 254.417 9.07556C250.622 10.9734 246.826 9.07556 243.031 9.07556C241.923 9.07556 240.816 9.07556 239.709 9.07556C237.021 9.07556 234.49 8.2848 231.802 9.07556C230.378 9.55001 228.639 8.91741 226.425 8.75926M281.303 3.69844C280.987 3.06583 280.512 3.11855 279.88 3.85659C280.512 3.85659 280.829 3.69844 281.303 3.54028C280.354 5.27994 278.614 4.64734 277.191 4.64734C277.191 4.64734 276.875 4.48919 276.717 4.33104C276.717 4.01474 276.717 3.54028 276.875 2.90768C274.661 2.90768 272.447 2.74953 270.074 2.59138C269.758 3.06583 269.442 3.54028 269.284 3.85659C268.493 3.38213 267.86 2.59138 267.386 2.59138C264.381 2.59138 261.218 1.64248 258.371 3.85659C258.213 3.85659 257.897 3.85659 257.422 3.85659C257.422 3.22398 257.739 2.74953 257.897 1.80063C254.259 3.22398 250.622 1.32618 247.459 3.38213C246.352 1.80063 244.454 1.95878 243.347 2.59138C241.607 3.69844 240.5 3.22398 239.393 1.80063C238.286 2.43323 237.179 2.90768 236.23 3.38213C236.072 2.90768 235.756 2.59138 235.597 1.95878C235.123 2.27508 234.649 2.74953 234.332 2.74953C230.537 2.59138 226.741 2.27508 222.787 1.95878C221.364 1.95878 219.941 1.95878 218.992 3.06583C217.568 2.43323 216.303 1.32618 214.722 2.11693C213.931 2.59138 213.298 2.43323 212.349 2.11693C211.242 1.80063 209.819 1.80063 208.712 2.11693C206.34 3.06583 204.125 2.11693 202.07 1.32618C201.595 1.80063 200.962 2.27508 200.488 2.74953C198.907 2.11693 193.846 2.11693 192.106 2.43323C190.525 2.74953 188.943 3.69844 187.52 2.11693C187.203 1.80063 186.254 1.95878 185.622 2.11693C184.357 2.27508 183.25 2.74953 182.143 3.06583C181.352 2.43323 180.561 1.80063 180.087 1.48433C178.663 1.80063 177.556 2.27508 176.449 2.27508C171.072 2.27508 165.695 2.59138 160.318 2.27508C154.15 2.11693 148.14 2.27508 141.972 2.27508C139.442 2.27508 136.911 2.27508 134.381 2.27508C129.32 2.27508 124.418 2.74953 119.357 2.74953C116.51 2.74953 113.505 2.74953 110.658 2.74953C103.384 3.06583 95.9504 3.54029 88.6755 4.01474C82.6658 4.33104 76.656 4.80549 70.6463 5.12179C63.8458 5.59624 56.8872 6.0707 50.0867 6.54515C48.1889 6.54515 46.133 6.54515 44.2352 7.3359C49.7704 8.60111 55.1476 6.54515 60.6828 7.3359C62.2643 6.0707 64.1621 6.7033 65.9018 6.7033C68.2741 6.7033 70.8045 6.54515 73.1767 6.387C75.8653 6.22885 78.5539 5.91254 81.4006 5.75439C81.875 5.75439 82.6658 5.27994 82.9821 5.43809C84.4054 6.54515 85.6706 5.91254 87.2521 5.75439C90.7315 5.27994 94.3689 5.27994 97.8482 5.27994C102.909 5.27994 107.812 5.27994 112.714 4.64734C115.719 4.33104 118.724 4.80549 121.729 4.64734C124.101 4.64734 126.632 4.17289 129.004 4.01474C129.478 4.01474 129.953 4.01474 130.427 4.01474C135.488 4.33104 140.391 3.85659 145.452 4.17289C147.191 4.17289 149.089 4.17289 150.829 4.17289C152.568 4.17289 154.15 4.17289 155.89 4.17289C157.629 4.17289 159.527 3.69844 161.267 4.17289C163.006 4.64734 164.746 3.85659 166.327 4.17289C169.649 4.80549 172.97 3.22398 176.133 4.64734C180.719 3.54028 185.306 4.64734 189.734 5.12179C190.999 5.12179 192.264 4.64734 193.529 4.64734C195.902 4.64734 198.116 4.64734 200.488 4.64734C201.437 4.64734 202.386 4.17289 203.335 4.48919C206.34 5.27994 209.344 5.12179 212.349 4.48919C212.824 4.48919 213.615 4.48919 214.089 4.80549C215.512 5.75439 216.145 4.80549 216.778 3.69844C218.992 4.96364 221.68 5.43809 223.894 5.12179C227.532 4.48919 231.169 5.12179 234.649 4.80549C237.812 4.48919 241.291 4.96364 244.612 5.27994C245.561 5.27994 246.352 5.91254 247.301 5.75439C252.203 4.96364 257.264 5.91254 262.167 5.43809C264.697 5.12179 267.386 6.7033 269.916 5.12179C270.074 5.12179 270.391 5.12179 270.707 5.12179C273.87 6.0707 277.033 6.22885 280.196 6.0707C282.252 6.0707 284.308 6.0707 286.364 6.0707C286.522 6.54515 286.522 6.86145 286.68 7.0196C286.68 7.3359 286.996 7.49405 287.155 7.9685C288.42 6.22885 288.578 6.07069 290.792 6.22885C292.532 6.22885 294.43 6.54515 296.169 6.7033C297.909 6.7033 299.807 6.22885 301.388 6.7033C305.342 7.3359 309.296 8.6011 313.249 7.0196C313.249 7.0196 313.566 7.0196 313.724 7.0196C315.78 7.81035 317.994 7.9685 320.208 7.49405C320.683 7.49405 321.315 7.49405 321.473 7.6522C322.422 8.75926 323.529 8.2848 324.478 7.9685C324.953 7.9685 325.427 7.6522 325.743 7.6522C328.748 8.12665 331.911 7.9685 335.074 8.44295C339.344 9.07556 343.456 8.6011 347.726 8.44295C348.201 8.44295 348.675 8.12665 349.782 7.81035C346.461 7.0196 343.298 8.44295 341.242 5.75439C339.977 6.7033 338.712 6.54515 336.498 5.27994C335.865 6.22885 335.549 7.9685 333.809 6.86145C333.809 6.07069 334.125 5.27994 334.283 4.48919C334.125 4.48919 333.967 4.17289 333.651 4.17289C333.176 4.96364 332.702 5.75439 332.386 6.54515C331.437 5.91254 330.804 5.12179 330.488 5.27994C329.064 5.59624 327.641 6.0707 326.06 6.54515C324.794 5.43809 323.529 4.80549 321.79 6.0707C320.683 7.0196 317.678 6.387 317.361 5.59624C316.887 4.33104 316.254 4.33104 315.147 4.33104C313.249 4.33104 311.193 4.48919 309.296 4.33104C308.03 4.33104 306.923 4.33104 305.816 4.96364C305.816 4.96364 305.5 4.96364 305.342 4.96364C305.342 4.33104 305.184 3.85659 305.026 3.22398C305.026 3.22398 304.709 3.22398 304.551 3.22398C304.235 3.85659 303.919 4.64734 303.602 5.43809C302.97 5.27994 302.179 5.12179 301.546 4.80549C301.863 4.33104 301.863 4.01474 302.021 3.69844C299.49 2.11693 298.541 4.96364 296.485 5.12179C295.853 3.69844 295.062 2.59138 293.322 3.06583C292.057 3.38213 290.792 3.85659 289.527 4.17289C289.052 3.85659 288.578 3.38213 288.103 3.38213C285.731 3.22398 283.359 3.22398 280.987 3.06583" fill="#010101"/>
</svg>
