<?xml version="1.0" encoding="utf-8"?>
<!-- Generator: Adobe Illustrator 27.5.0, SVG Export Plug-In . SVG Version: 6.00 Build 0)  -->
<svg version="1.1" id="Layer_1" xmlns="http://www.w3.org/2000/svg" xmlns:xlink="http://www.w3.org/1999/xlink" x="0px" y="0px"
	 viewBox="0 0 400 122" style="enable-background:new 0 0 400 122;" xml:space="preserve">
<path d="M400,121.4H0v0.6h400V121.4z"/>
<path d="M87.6,78.3c0,1.1,0.4,2,1.3,2.8c0.8,0.7,1.7,1,2.8,1s1.3-0.1,1.9-0.4c0.2-0.1,0.3-0.2,0.5-0.2c0.1-0.1,0.3-0.2,0.4-0.3
	c0.2-0.2,0.5-0.4,0.7-0.6L94.6,80c-0.4,0.4-0.9,0.7-1.3,0.9c-0.5,0.2-1,0.3-1.5,0.3c-0.9,0-1.7-0.2-2.2-0.7c-0.6-0.6-1-1.3-1-2.3
	c0-1,0.3-1.4,1-2c0.7-0.6,1.4-0.8,2.2-0.8s0.5,0,0.7,0.1c0.2,0,0.5,0.1,0.7,0.2c0.5,0.2,0.9,0.5,1.3,0.8l0.5-0.6
	c-0.5-0.4-1-0.7-1.5-0.9c-0.6-0.2-1.1-0.3-1.7-0.3c-1,0-1.9,0.3-2.8,1c-0.9,0.7-1.3,1.6-1.3,2.6L87.6,78.3z"/>
<path d="M99,80.9c0.8,0.7,1.8,1.1,2.8,1.1s1.1-0.1,1.5-0.2c0.2-0.1,0.5-0.2,0.7-0.3c0.2-0.1,0.4-0.3,0.6-0.5
	c0.9-0.7,1.3-1.6,1.3-2.7c0-1.1-0.5-2.1-1.3-2.8c-0.7-0.6-1.7-0.9-2.8-0.9c-1.1,0-2,0.3-2.8,1c-0.8,0.7-1.3,1.6-1.3,2.6
	C97.7,79.3,98.1,80.2,99,80.9z M99.6,76.3c0.6-0.6,1.4-0.8,2.2-0.8s1.6,0.3,2.3,0.8c0.7,0.6,1.1,1.2,1.1,2.2c0,0.9-0.3,1.6-1,2.2
	c-0.7,0.6-1.4,0.8-2.4,0.8c-0.9,0-1.7-0.3-2.3-0.8c-0.6-0.6-0.9-1.3-0.9-2.2C98.6,77.5,98.9,76.9,99.6,76.3L99.6,76.3z"/>
<path d="M110.2,75.7c-0.8,0.7-1.3,1.6-1.3,2.6c0,1,0.4,1.9,1.3,2.6c0.8,0.7,1.8,1.1,2.8,1.1c1,0,1.1-0.1,1.5-0.2
	c0.2-0.1,0.5-0.2,0.7-0.3c0.2-0.1,0.4-0.3,0.6-0.5c0.9-0.7,1.3-1.6,1.3-2.7c0-1.1-0.5-2.1-1.3-2.8c-0.7-0.6-1.7-0.9-2.8-0.9
	C111.9,74.7,111,75,110.2,75.7z M116.3,78.3c0,0.8-0.3,1.6-1,2.2c-0.7,0.6-1.4,0.8-2.4,0.8c-0.9,0-1.7-0.3-2.3-0.8
	c-0.6-0.6-0.9-1.3-0.9-2.2c0-0.9,0.3-1.5,1-2c0.6-0.6,1.4-0.8,2.2-0.8c0.8,0,1.6,0.3,2.3,0.8C116,76.8,116.3,77.5,116.3,78.3
	L116.3,78.3z"/>
<path d="M121.6,75.8l2.9,5.1l3-5.1v6.2h0.7v-7.1h-1l-2.7,4.7l-2.7-4.6l-1-0.1v7.1h0.7V75.8z"/>
<path d="M139,76.7c0-0.6-0.2-1.1-0.7-1.4c-0.3-0.3-0.7-0.5-1-0.5h-4.6v7.1h4.8c0.5-0.1,0.9-0.3,1.3-0.8c0.3-0.5,0.5-0.8,0.5-1.3
	c0-0.5-0.1-0.7-0.3-1c-0.2-0.3-0.5-0.5-0.8-0.6c0.3-0.3,0.5-0.5,0.6-0.7C139,77.3,139,77,139,76.7L139,76.7z M136.7,75.5
	c0.4,0,0.8,0.1,1.1,0.3c0.3,0.2,0.5,0.5,0.5,1c0,0.5-0.1,0.6-0.3,0.8c-0.2,0.2-0.4,0.3-0.7,0.3h-3.8v-2.4H136.7z M138.6,79.8
	c0,0.4-0.1,0.7-0.3,1c-0.3,0.3-0.6,0.5-0.9,0.5h-3.8v-2.6h4c0.3,0,0.6,0.2,0.9,0.4c0.2,0.2,0.3,0.5,0.3,0.7H138.6z"/>
<path d="M145,81.9c0.3,0.1,0.8,0.1,1.3,0.1c0.9,0,1.7-0.2,2.3-0.6c0.6-0.4,0.9-1,0.9-1.6s-0.2-1-0.6-1.4c-0.4-0.4-0.9-0.6-1.4-0.6
	l-2.5-0.1c-0.3,0-0.6-0.1-0.9-0.3c-0.2-0.2-0.4-0.5-0.4-0.8c0-0.3,0.3-0.7,0.8-0.9c0.5-0.2,0.9-0.3,1.5-0.3c0.6,0,0.9,0.1,1.3,0.2
	c0.5,0.2,0.9,0.3,1.3,0.6l0.5-0.5c-0.5-0.3-0.9-0.6-1.4-0.7c-0.5-0.2-1-0.3-1.5-0.3c-0.5,0-1.4,0.2-2,0.5c-0.7,0.4-1.1,0.8-1.1,1.4
	c0,0.6,0.2,1,0.5,1.4c0.3,0.3,0.7,0.5,1.3,0.5l2.5,0.2c0.4,0,0.7,0.1,1,0.3c0.3,0.2,0.5,0.5,0.5,0.8c0,0.5-0.3,0.9-0.9,1.2
	c-0.5,0.3-1.1,0.4-1.7,0.4s-0.6,0-0.9-0.1c-0.3,0-0.6-0.1-0.9-0.2c-0.3-0.1-0.5-0.2-0.8-0.4c-0.1-0.1-0.2-0.2-0.3-0.2
	c0,0-0.2-0.1-0.3-0.3l-0.5,0.6c0.6,0.5,1.1,0.8,1.6,1c0.3,0.1,0.6,0.2,1,0.3L145,81.9z"/>
<path d="M152.8,74.9l-0.8-0.1l3.4,7.1h0.8l3.4-7.1l-0.8,0.1l-3,6.2L152.8,74.9z"/>
<path d="M164,74.8h-0.7v7.1h0.7V74.8z"/>
<path d="M174.2,81.3h-4.6v-6.5h-0.7v7.1h5.4V81.3z"/>
<path d="M183.3,81.3h-4.6v-6.5h-0.7v7.1h5.4V81.3z"/>
<path d="M193.2,81.3h-5.4v-2.7h2.8v-0.7h-2.8v-2.4h5.2v-0.7h-5.9v7.1h6.1V81.3z"/>
<path d="M196.9,82.8l0.6-0.8v-1h-0.7v0.9h0.3l-0.5,1H196.9z"/>
<path d="M210.9,75.9l4.9,6.1h0.8v-7.1h-0.7V81l-5-6.2h-0.8v7.1h0.7L210.9,75.9z"/>
<path d="M221.9,79.5h3.6l1.1,2.4h0.9l-3.4-7.1h-0.6l-3.4,7.1h0.7L221.9,79.5L221.9,79.5z M223.7,75.8l1.5,3.1h-2.9L223.7,75.8z"/>
<path d="M231.6,78.8h3.8c0.5,0,0.9-0.2,1.3-0.6c0.3-0.4,0.5-0.8,0.5-1.3c0-0.5-0.2-1-0.5-1.5c-0.3-0.5-0.7-0.7-1.1-0.7h-4.6v7.1h0.7
	L231.6,78.8L231.6,78.8z M235.4,75.5c0.3,0,0.5,0.2,0.7,0.5c0.2,0.3,0.3,0.6,0.3,1c0,0.3-0.1,0.6-0.3,0.8c-0.2,0.2-0.4,0.4-0.6,0.4
	h-4v-2.7H235.4z"/>
<path d="M239.1,81.9h0.7l1.1-2.4h3.6l1.1,2.4h0.9l-3.4-7.1h-0.6L239.1,81.9L239.1,81.9z M244.3,78.9h-2.9l1.4-3.1L244.3,78.9z"/>
<path d="M261.3,81.9l3.3-7.1l-0.8,0.1l-2.9,6.2l-3-6.2l-0.8-0.1l3.4,7.1H261.3z"/>
<path d="M266,81.9h0.7l1.1-2.4h3.6l1.1,2.4h0.9l-3.4-7.1h-0.6L266,81.9L266,81.9z M271.1,78.9h-2.9l1.4-3.1L271.1,78.9z"/>
<path d="M282.3,81.3h-4.7v-6.5h-0.7v7.1h5.4V81.3z"/>
<path d="M285.9,74.8v7.1h5.4v-0.7h-4.7v-6.5H285.9z"/>
<path d="M301,75.5v-0.7h-5.9v7.1h6.2v-0.7h-5.5v-2.7h2.8v-0.7h-2.8v-2.4H301z"/>
<path d="M307.1,81.9h0.6v-3.6l3.2-3.5H310l-2.6,2.8l-2.5-2.8h-1l3.1,3.5V81.9z"/>
<path d="M33.8,7.7h8.6v6h1.9V0.2h-1.9v5.6h-8.6V0.2h-1.9v13.5h1.9V7.7z"/>
<path d="M59.6,9.3h6.1l2.1,4.4h2.4L63.6,0.2H62l-6.4,13.5h2.1L59.6,9.3z M62.7,3l2.2,4.6h-4.3L62.7,3z"/>
<path d="M83,13.7h1.8V7L91,0.2h-2.5L84,5.2l-4.4-4.9h-2.5L83,6.9V13.7z"/>
<path d="M104.1,3.3l8.5,10.4h2V0.2h-2v10.7L104,0.2h-1.9v13.5h2L104.1,3.3z"/>
<path d="M139.7,11.8h-9.9V7.7h5V5.9h-5V2.1h9.4V0.3h-11.3v13.4h11.8V11.8z"/>
<path d="M160.5,11.4c-0.9,0.5-1.9,0.7-3.1,0.7s-0.6,0-0.8,0c-0.2,0-0.5,0-0.8-0.1c-0.3-0.1-0.6-0.1-0.7-0.2c-0.1,0-0.4-0.1-0.7-0.2
	c-0.5-0.2-1-0.5-1.4-0.7c-0.5-0.3-1-0.7-1.4-1.1l-1.2,1.5c1.3,1.1,2.4,1.8,3.2,2c1.1,0.5,2.5,0.7,4.2,0.7c1.7,0,1.6-0.1,2.4-0.3
	c0.7-0.2,1.4-0.5,1.9-0.9c1.3-0.9,1.8-1.9,1.8-3.2c0-1.3-0.4-1.9-1.3-2.7c-0.9-0.8-1.8-1.1-2.8-1.1l-4.6-0.2c-0.5,0-1-0.2-1.4-0.6
	c-0.4-0.4-0.6-0.8-0.6-1.2c0-0.4,0.4-1,1.2-1.4c0.8-0.3,1.7-0.6,2.7-0.6c1,0,0.7,0,1.1,0.1c0.1,0,0.2,0,0.3,0.1
	c0.1,0,0.4,0.1,0.8,0.2l1.2,0.5c0.5,0.2,0.9,0.4,1.3,0.6l1.1-1.3c-1.1-0.8-2.1-1.3-2.9-1.6c-0.8-0.3-1.8-0.5-2.8-0.5s-0.6,0-1,0.1
	c-0.3,0-0.7,0.1-1,0.2c-0.6,0.2-1.3,0.4-1.8,0.7c-1.4,0.7-2.1,1.7-2.1,2.8s0.3,2,1,2.7c0.7,0.7,1.5,1,2.5,1l4.5,0.3
	c0.6,0,1.2,0.2,1.7,0.5c0.5,0.3,0.7,0.8,0.7,1.3C161.8,10.4,161.3,11,160.5,11.4L160.5,11.4z"/>
<path d="M203.6,13.7l6.4-13.4h-2.2l-5.2,10.9l-5.2-10.9h-2.1l6.4,13.4H203.6z"/>
<path d="M223.4,0.2h-2v13.5h2V0.2z"/>
<path d="M238.9,3.3l8.5,10.4h1.9V0.2h-1.9v10.7l-8.7-10.7h-1.8v13.5h2L238.9,3.3z"/>
<path d="M274.4,11.8h-9.9V7.7h5V5.9h-5V2.1h9.5V0.3h-11.4v13.4h11.8V11.8z"/>
<path d="M290.6,13.7h1.8V7l6.1-6.8h-2.5l-4.5,4.9l-4.4-4.9h-2.5l5.9,6.7V13.7z"/>
<path d="M309.6,9.3h6.1l2.1,4.4h2.4l-6.5-13.5H312l-6.4,13.5h2.1L309.6,9.3L309.6,9.3z M312.7,3l2.2,4.6h-4.3L312.7,3z"/>
<path d="M333.2,8.2h5l3.7,5.5h2.2l-3.7-5.6c1-0.2,1.8-0.6,2.4-1c0.9-0.6,1.3-1.6,1.3-2.9s-0.4-2-1.1-2.8c-0.7-0.8-1.7-1.1-2.8-1.1
	h-8.7v13.4h1.9L333.2,8.2L333.2,8.2z M333.2,2.2h6.9c0.6,0,1.1,0.2,1.4,0.7c0.3,0.4,0.4,0.8,0.4,1.4s-0.2,1.1-0.5,1.5
	c-0.3,0.4-0.8,0.6-1.4,0.6h-6.8V2.2z"/>
<path d="M367.4,11.6c1.1-1.3,1.7-2.8,1.7-4.4s-0.5-3.5-1.6-4.7c-1.1-1.5-2.5-2.2-4.3-2.2h-7.1v13.4h7.1
	C364.8,13.7,366.2,13,367.4,11.6L367.4,11.6z M358.1,11.9V2.2h4.8c1.1,0,2.1,0.5,2.9,1.5c0.8,1,1.2,2.2,1.2,3.5s-0.4,2.3-1.2,3.2
	c-0.8,1-1.7,1.5-2.6,1.5H358.1L358.1,11.9z"/>
</svg>
