<svg width="400" height="122" viewBox="0 0 400 122" fill="none" xmlns="http://www.w3.org/2000/svg">
<path d="M400 121.433H0V122H400V121.433Z" fill="white"/>
<path d="M87.5699 78.2545C87.5699 79.3878 87.9713 80.2945 88.8315 81.0311C89.6344 81.7111 90.552 82.0511 91.6416 82.0511C92.7312 82.0511 92.9032 81.9378 93.534 81.6544C93.7061 81.5978 93.8781 81.4844 93.9928 81.4278C94.1075 81.3711 94.2796 81.2578 94.3943 81.1444C94.6237 80.9744 94.853 80.7478 95.0824 80.5211L94.5663 80.0111C94.1649 80.4078 93.7061 80.6911 93.2473 80.9178C92.7885 81.1444 92.215 81.2578 91.6989 81.2578C90.7814 81.2578 90.0358 81.0311 89.4624 80.5211C88.8315 79.9545 88.4875 79.2178 88.4875 78.2545C88.4875 77.2912 88.8315 76.8379 89.5197 76.2712C90.2079 75.7046 90.9534 75.4213 91.6989 75.4213C92.4444 75.4213 92.215 75.4213 92.4444 75.4779C92.6738 75.4779 92.9032 75.5913 93.19 75.7046C93.7061 75.9313 94.1075 76.2146 94.509 76.4979L94.9677 75.8746C94.4516 75.4779 93.9355 75.1946 93.4193 74.968C92.8459 74.7413 92.3297 74.628 91.7563 74.628C90.724 74.628 89.8064 74.968 89.0036 75.5913C88.1434 76.3279 87.7419 77.1779 87.7419 78.1979L87.5699 78.2545Z" fill="white"/>
<path d="M98.9821 80.9178C99.785 81.6544 100.76 81.9944 101.792 81.9944C102.824 81.9944 102.882 81.9378 103.341 81.7678C103.57 81.7111 103.799 81.5978 104.029 81.4844C104.258 81.3711 104.43 81.2011 104.66 81.0311C105.52 80.3511 105.921 79.4445 105.921 78.3679C105.921 77.2912 105.462 76.2713 104.602 75.5913C103.857 74.968 102.882 74.6846 101.792 74.6846C100.703 74.6846 99.785 75.0246 98.9821 75.7046C98.1792 76.4412 97.7204 77.2912 97.7204 78.3112C97.7204 79.3312 98.1219 80.1811 98.9821 80.9178ZM99.5556 76.2712C100.186 75.7046 100.989 75.4213 101.792 75.4213C102.595 75.4213 103.398 75.7046 104.086 76.2146C104.832 76.7812 105.176 77.4612 105.176 78.3679C105.176 79.2745 104.832 79.9545 104.143 80.5211C103.455 81.0878 102.71 81.3711 101.792 81.3711C100.875 81.3711 100.129 81.0878 99.4982 80.5211C98.8674 79.9545 98.5806 79.2178 98.5806 78.3679C98.5806 77.5179 98.9247 76.8946 99.5556 76.3279V76.2712Z" fill="white"/>
<path d="M110.165 75.7046C109.362 76.4412 108.903 77.2912 108.903 78.3112C108.903 79.3312 109.305 80.1811 110.165 80.9178C110.968 81.6544 111.943 81.9944 112.975 81.9944C114.007 81.9944 114.065 81.9378 114.523 81.7678C114.753 81.7111 114.982 81.5978 115.211 81.4844C115.441 81.3711 115.613 81.2011 115.842 81.0311C116.703 80.3511 117.104 79.4445 117.104 78.3679C117.104 77.2912 116.645 76.2713 115.785 75.5913C115.039 74.968 114.065 74.6846 112.975 74.6846C111.885 74.6846 110.968 75.0246 110.165 75.7046ZM116.301 78.3112C116.301 79.1612 115.957 79.8978 115.269 80.4645C114.581 81.0311 113.835 81.3144 112.918 81.3144C112 81.3144 111.254 81.0311 110.624 80.4645C109.993 79.8978 109.706 79.1612 109.706 78.3112C109.706 77.4612 110.05 76.8379 110.681 76.2712C111.312 75.7046 112.115 75.4213 112.918 75.4213C113.72 75.4213 114.523 75.7046 115.211 76.2146C115.957 76.7812 116.301 77.4612 116.301 78.3679V78.3112Z" fill="white"/>
<path d="M121.577 75.7613L124.502 80.8611L127.484 75.7613V81.9378H128.229V74.798H127.197L124.502 79.5012L121.806 74.8546L120.832 74.798V81.9378H121.577V75.7613Z" fill="white"/>
<path d="M139.011 76.7246C139.011 76.1579 138.781 75.6479 138.323 75.3079C137.978 75.0246 137.634 74.8546 137.348 74.8546H132.76V81.9378H137.577C138.093 81.8244 138.495 81.5978 138.839 81.1444C139.183 80.6911 139.355 80.2945 139.355 79.8412C139.355 79.3878 139.24 79.1612 139.068 78.8778C138.896 78.5945 138.609 78.3679 138.265 78.2545C138.552 77.9712 138.724 77.7445 138.839 77.5179C138.953 77.2912 139.011 77.0079 139.011 76.7812V76.7246ZM136.717 75.5346C137.118 75.5346 137.52 75.6479 137.806 75.8179C138.093 76.0446 138.265 76.3279 138.265 76.7812C138.265 77.2346 138.151 77.3479 137.979 77.5746C137.806 77.8012 137.577 77.9145 137.29 77.9145H133.448V75.5346H136.717ZM138.609 79.8412C138.609 80.2378 138.495 80.5778 138.265 80.8611C137.979 81.1444 137.692 81.3144 137.348 81.3144H133.563V78.7079H137.52C137.864 78.7079 138.151 78.8779 138.38 79.1045C138.609 79.3312 138.724 79.5578 138.724 79.8412H138.609Z" fill="white"/>
<path d="M144.975 81.9378C145.319 81.9944 145.778 82.0511 146.237 82.0511C147.154 82.0511 147.9 81.8244 148.53 81.4278C149.161 81.0311 149.448 80.4645 149.448 79.7845C149.448 79.1045 149.219 78.8212 148.817 78.4245C148.416 78.0279 147.9 77.8579 147.384 77.8579L144.86 77.7445C144.516 77.7445 144.229 77.6312 144 77.4046C143.771 77.1779 143.599 76.8946 143.599 76.6112C143.599 76.3279 143.885 75.9313 144.401 75.7046C144.86 75.4779 145.319 75.3646 145.892 75.3646C146.466 75.3646 146.753 75.4213 147.211 75.5913C147.67 75.7613 148.129 75.9313 148.473 76.1579L148.932 75.7046C148.473 75.3646 148.014 75.1379 147.498 74.9679C147.039 74.798 146.523 74.6846 146.007 74.6846C145.491 74.6846 144.631 74.8546 144 75.1946C143.254 75.5913 142.91 76.0446 142.91 76.6112C142.91 77.1779 143.082 77.6312 143.427 77.9712C143.771 78.3112 144.172 78.4812 144.746 78.4812L147.269 78.6512C147.67 78.6512 148.014 78.7645 148.301 78.9345C148.588 79.1612 148.76 79.4445 148.76 79.7845C148.76 80.2945 148.473 80.6911 147.9 80.9744C147.384 81.2578 146.81 81.3711 146.179 81.3711C145.548 81.3711 145.548 81.3711 145.319 81.3144C145.032 81.3144 144.746 81.2011 144.459 81.0878C144.172 80.9744 143.943 80.8611 143.656 80.6911C143.541 80.5778 143.427 80.5211 143.312 80.4645C143.312 80.4645 143.14 80.3511 142.968 80.1811L142.509 80.7478C143.14 81.2578 143.656 81.5411 144.115 81.7111C144.401 81.8244 144.746 81.9378 145.09 81.9944L144.975 81.9378Z" fill="white"/>
<path d="M152.832 74.8546L152.029 74.798L155.412 81.9378H156.215L159.599 74.798L158.796 74.8546L155.814 81.0878L152.832 74.8546Z" fill="white"/>
<path d="M163.957 74.798H163.211V81.9378H163.957V74.798Z" fill="white"/>
<path d="M174.165 81.2578H169.52V74.798H168.774V81.9378H174.165V81.2578Z" fill="white"/>
<path d="M183.283 81.2578H178.638V74.798H177.892V81.9378H183.283V81.2578Z" fill="white"/>
<path d="M193.204 81.2578H187.756V78.5945H190.566V77.9145H187.756V75.4779H192.975V74.798H187.068V81.9378H193.204V81.2578Z" fill="white"/>
<path d="M196.932 82.8444L197.505 81.9944V80.9744H196.76V81.8811H197.047L196.588 82.8444H196.932Z" fill="white"/>
<path d="M210.867 75.8746L215.799 81.9378H216.602V74.798H215.857V81.0311L210.867 74.798H210.065V81.9378H210.81L210.867 75.8746Z" fill="white"/>
<path d="M221.878 79.5012H225.491L226.638 81.9378H227.556L224.115 74.798H223.484L220.1 81.9378H220.846L221.936 79.5012H221.878ZM223.656 75.7613L225.147 78.8778H222.222L223.656 75.7613Z" fill="white"/>
<path d="M231.627 78.8212H235.47C235.928 78.8212 236.387 78.6512 236.731 78.2545C237.075 77.8579 237.247 77.4046 237.247 76.9512C237.247 76.4979 237.075 75.9313 236.731 75.4779C236.387 75.0246 235.986 74.798 235.584 74.798H230.939V81.8811H231.685V78.8212H231.627ZM235.412 75.5346C235.699 75.5346 235.928 75.7046 236.1 75.9879C236.272 76.2713 236.387 76.6112 236.387 76.9512C236.387 77.2912 236.272 77.5179 236.1 77.8012C235.928 78.0279 235.699 78.1979 235.527 78.1979H231.57V75.5346H235.412Z" fill="white"/>
<path d="M239.14 81.9378H239.885L240.975 79.5012H244.588L245.735 81.9378H246.652L243.211 74.798H242.581L239.197 81.9378H239.14ZM244.301 78.8778H241.376L242.81 75.7613L244.301 78.8778Z" fill="white"/>
<path d="M261.333 81.9378L264.659 74.798L263.857 74.8546L260.932 81.0878L257.95 74.8546L257.147 74.798L260.53 81.9378H261.333Z" fill="white"/>
<path d="M265.979 81.9378H266.724L267.814 79.5012H271.427L272.573 81.9378H273.491L270.05 74.798H269.419L266.036 81.9378H265.979ZM271.14 78.8778H268.215L269.649 75.7613L271.14 78.8778Z" fill="white"/>
<path d="M282.265 81.2578H277.563V74.798H276.817V81.9378H282.265V81.2578Z" fill="white"/>
<path d="M285.936 74.798V81.9378H291.384V81.2578H286.681V74.798H285.936Z" fill="white"/>
<path d="M301.018 75.4779V74.798H295.111V81.9378H301.305V81.2578H295.799V78.5945H298.609V77.9145H295.799V75.4779H301.018Z" fill="white"/>
<path d="M307.097 81.9378H307.728V78.3112L310.939 74.798H310.022L307.441 77.6312L304.975 74.798H304L307.097 78.2545V81.9378Z" fill="white"/>
<path d="M33.7778 7.70646H42.3799V13.713H44.3298V0.22666H42.3799V5.83651H33.7778V0.22666H31.8853V13.713H33.7778V7.70646Z" fill="white"/>
<path d="M59.6416 9.34974H65.7778L67.8423 13.713H70.1936L63.5986 0.22666H61.9928L55.5699 13.713H57.6344L59.6416 9.34974ZM62.7383 3.00325L64.9176 7.59313H60.6165L62.7383 3.00325Z" fill="white"/>
<path d="M83.0394 13.713H84.8746V7.02647L91.0107 0.22666H88.5448L84.0143 5.15653L79.6559 0.22666H77.1326L83.0394 6.91314V13.713Z" fill="white"/>
<path d="M104.143 3.28658L112.631 13.713H114.581V0.22666H112.631V10.8797L103.971 0.22666H102.079V13.713H104.086L104.143 3.28658Z" fill="white"/>
<path d="M139.699 11.843H129.778V7.70646H134.824V5.89317H129.778V2.09661H139.183V0.283326H127.885V13.713H139.699V11.843Z" fill="white"/>
<path d="M160.459 11.4464C159.599 11.8997 158.566 12.1263 157.362 12.1263C156.158 12.1263 156.731 12.1263 156.559 12.1263C156.387 12.1263 156.1 12.1263 155.756 12.013C155.412 11.8997 155.183 11.8997 155.011 11.843C154.896 11.843 154.609 11.7297 154.323 11.6163C153.806 11.4464 153.348 11.163 152.946 10.8797C152.487 10.5397 151.971 10.1431 151.513 9.7464L150.308 11.2764C151.57 12.353 152.66 13.033 153.462 13.3163C154.552 13.7696 155.986 13.9963 157.649 13.9963C159.312 13.9963 159.254 13.883 160 13.713C160.746 13.4863 161.376 13.203 161.95 12.863C163.211 12.013 163.785 10.9364 163.785 9.63307C163.785 8.32977 163.384 7.70646 162.523 6.96981C161.663 6.1765 160.746 5.83651 159.713 5.83651L155.125 5.60985C154.609 5.60985 154.151 5.43985 153.749 5.0432C153.348 4.64654 153.118 4.24988 153.118 3.85323C153.118 3.45657 153.52 2.83326 154.323 2.49327C155.125 2.15327 155.986 1.92661 157.018 1.92661C158.05 1.92661 157.706 1.92661 158.165 2.03994C158.28 2.03994 158.394 2.03994 158.509 2.09661C158.624 2.09661 158.91 2.20994 159.312 2.32327L160.516 2.77659C160.975 2.94659 161.376 3.17325 161.778 3.39991L162.925 2.09661C161.778 1.3033 160.803 0.793312 160 0.509986C159.197 0.169995 158.222 0 157.19 0C156.158 0 156.559 7.45058e-09 156.215 0.0566651C155.871 0.0566651 155.527 0.169995 155.24 0.22666C154.609 0.396656 153.979 0.623316 153.405 0.906642C151.971 1.64329 151.283 2.6066 151.283 3.7399C151.283 4.8732 151.627 5.77984 152.315 6.45982C153.004 7.13981 153.864 7.47979 154.839 7.47979L159.369 7.76312C160 7.76312 160.573 7.93312 161.09 8.27311C161.548 8.6131 161.778 9.06642 161.778 9.5764C161.778 10.4264 161.319 11.0497 160.459 11.503V11.4464Z" fill="white"/>
<path d="M203.642 13.713L210.065 0.283326H207.885L202.724 11.163L197.505 0.283326H195.384L201.806 13.713H203.642Z" fill="white"/>
<path d="M223.427 0.22666H221.419V13.713H223.427V0.22666Z" fill="white"/>
<path d="M238.853 3.28658L247.34 13.713H249.29V0.22666H247.34V10.8797L238.681 0.22666H236.846V13.713H238.796L238.853 3.28658Z" fill="white"/>
<path d="M274.409 11.843H264.487V7.70646H269.534V5.89317H264.487V2.09661H273.95V0.283326H262.595V13.713H274.409V11.843Z" fill="white"/>
<path d="M290.581 13.713H292.416V7.02647L298.552 0.22666H296.086L291.556 5.15653L287.197 0.22666H284.674L290.581 6.91314V13.713Z" fill="white"/>
<path d="M309.62 9.34974H315.756L317.821 13.713H320.172L313.634 0.22666H312.029L305.606 13.713H307.67L309.677 9.34974H309.62ZM312.717 3.00325L314.896 7.59313H310.595L312.717 3.00325Z" fill="white"/>
<path d="M333.247 8.21644H338.294L341.964 13.713H344.143L340.416 8.10311C341.448 7.87645 342.194 7.53646 342.767 7.08314C343.627 6.45982 344.029 5.49652 344.029 4.19322C344.029 2.88992 343.627 2.15327 342.882 1.41663C342.136 0.623316 341.161 0.283326 340.072 0.283326H331.355V13.713H333.305V8.21644H333.247ZM333.247 2.15327H340.129C340.76 2.15327 341.219 2.37993 341.563 2.83326C341.849 3.22991 341.964 3.68323 341.964 4.24988C341.964 4.81653 341.792 5.32652 341.448 5.72318C341.104 6.11983 340.645 6.34649 340.072 6.34649H333.247V2.15327Z" fill="white"/>
<path d="M367.427 11.6163C368.573 10.3131 369.09 8.83976 369.09 7.19647C369.09 5.55318 368.573 3.7399 367.484 2.49326C366.337 1.01997 364.961 0.283326 363.183 0.283326H356.129V13.713H363.24C364.789 13.713 366.165 13.033 367.369 11.6163H367.427ZM358.136 11.8997V2.20994H362.896C364.043 2.20994 365.018 2.71993 365.821 3.7399C366.624 4.75987 367.025 5.94984 367.025 7.19647C367.025 8.4431 366.624 9.46307 365.821 10.4264C365.018 11.3897 364.158 11.8997 363.24 11.8997H358.079H358.136Z" fill="white"/>
</svg>
